<svg width="800" height="800" viewBox="0 0 800 800" fill="none" xmlns="http://www.w3.org/2000/svg">
<rect width="800" height="800" rx="140" fill="url(#paint0_linear_2_15)"/>
<circle cx="400" cy="400" r="295" fill="#FBFBFB"/>
<path fill-rule="evenodd" clip-rule="evenodd" d="M400 564C490.575 564 564 490.575 564 400C564 309.425 490.575 236 400 236C309.425 236 236 309.425 236 400C236 490.575 309.425 564 400 564ZM400 482C445.287 482 482 445.287 482 400C482 354.713 445.287 318 400 318C354.713 318 318 354.713 318 400C318 445.287 354.713 482 400 482Z" fill="#017D82"/>
<path fill-rule="evenodd" clip-rule="evenodd" d="M400 564C490.575 564 564 490.575 564 400C564 309.425 490.575 236 400 236C309.425 236 236 309.425 236 400C236 490.575 309.425 564 400 564ZM400 482C445.287 482 482 445.287 482 400C482 354.713 445.287 318 400 318C354.713 318 318 354.713 318 400C318 445.287 354.713 482 400 482Z" fill="url(#paint1_linear_2_15)"/>
<path d="M483.387 399.805C483.387 397.271 483.062 394.765 482.426 392.293C482.056 390.85 481.579 389.419 481 388H693.817C694.104 389.426 694.339 390.857 694.522 392.293C694.84 394.782 695 397.286 695 399.805C695 403.23 694.703 406.63 694.118 410H481.611C482.782 406.663 483.387 403.26 483.387 399.805Z" fill="#010C0E" stroke="#010C0E" stroke-width="16"/>
<path d="M481 384H476.387L477.04 388.567C477.233 389.916 477.392 391.278 477.516 392.651C477.728 395.005 477.836 397.391 477.836 399.805C477.836 403.097 477.635 406.336 477.244 409.512L476.692 414H481.214H555.691H559.455L559.684 410.243C559.893 406.792 560 403.311 560 399.805C560 397.227 559.942 394.663 559.829 392.114C559.763 390.644 559.678 389.179 559.575 387.719L559.313 384H555.585H481Z" fill="#FBFBFB" stroke="#FBFBFB" stroke-width="8"/>
<circle cx="399.5" cy="400.5" r="82.5" fill="#010C0E"/>
<defs>
<linearGradient id="paint0_linear_2_15" x1="-306.5" y1="800" x2="1002.86" y2="233.924" gradientUnits="userSpaceOnUse">
<stop offset="0.0926788" stop-color="#006A77"/>
<stop offset="0.709316" stop-color="#010C0D"/>
</linearGradient>
<linearGradient id="paint1_linear_2_15" x1="88.9467" y1="488.833" x2="598.44" y2="384.967" gradientUnits="userSpaceOnUse">
<stop offset="0.314085" stop-color="#006A77"/>
<stop offset="0.723357" stop-color="#00B8A2"/>
<stop offset="1" stop-color="#07DF91"/>
</linearGradient>
</defs>
</svg>
